<svg width="98" height="43" viewBox="0 0 98 43" fill="none" xmlns="http://www.w3.org/2000/svg">
<g filter="url(#filter0_d_92_379)">
<g filter="url(#filter1_d_92_379)">
<rect x="10" y="9" width="78" height="23" rx="11.5" fill="#F7FFF6"/>
</g>
<path d="M23.8662 14.207V19.5391H23.1572V16.8613H22.6416V19.2812H21.9561V14.2949H22.6416V16.2637H23.1572V14.207H23.8662ZM21.3936 14.8223V15.4258H20.1572V17.6992C20.6729 17.6963 21.1299 17.6699 21.6455 17.5762L21.6982 18.1855C21.0479 18.3086 20.4795 18.3262 19.7764 18.332H19.4072V14.8223H21.3936ZM28.7061 14.207V16.375H29.4033V16.9961H28.7061V19.5391H27.9502V14.207H28.7061ZM24.376 18.0332C24.7656 18.0332 25.2197 18.0332 25.6943 18.0215V17.5645C25.126 17.4531 24.7568 17.0928 24.7627 16.5977C24.7568 16 25.2959 15.5957 26.0752 15.5957C26.8369 15.5957 27.3818 16 27.3877 16.5977C27.3818 17.0928 27.0068 17.4561 26.4443 17.5645V17.9922C26.8662 17.9717 27.291 17.9365 27.6865 17.8809L27.7334 18.4258C26.5967 18.6367 25.3779 18.6426 24.4756 18.6426L24.376 18.0332ZM27.6455 14.7988V15.3848H24.4814V14.7988H25.6943V14.2363H26.4443V14.7988H27.6455ZM26.0752 16.1641C25.7119 16.1641 25.4658 16.3223 25.4717 16.5977C25.4658 16.8789 25.7119 17.0312 26.0752 17.0312C26.4268 17.0312 26.667 16.8789 26.667 16.5977C26.667 16.3223 26.4268 16.1641 26.0752 16.1641ZM34.501 16.5977V17.1543H29.6201V16.5977H34.501ZM33.915 17.418V18.6777H30.9268V18.9824H34.0732V19.4922H30.1826V18.2031H33.1768V17.9336H30.1768V17.418H33.915ZM33.9092 14.3008V15.5547H30.9736V15.8418H34.0029V16.3457H30.2295V15.0801H33.1592V14.8105H30.2178V14.3008H33.9092ZM38.2686 15.4141C38.2686 16.3926 38.7139 17.377 39.6162 17.7578L39.1768 18.3555C38.5674 18.0801 38.1455 17.5498 37.9053 16.8906C37.6621 17.6084 37.2256 18.1885 36.5752 18.4844L36.124 17.8633C37.0557 17.4707 37.5068 16.4512 37.5127 15.4141V14.6172H38.2686V15.4141ZM40.6592 14.207V19.5508H39.9033V14.207H40.6592ZM45.7275 16.5918V17.1836H44.1807V18.3203H46.2607V18.9297H41.3799V18.3203H43.4365V17.1836H41.9541V14.582H45.6865V15.1797H42.7041V16.5918H45.7275ZM50.7959 14.1953V15.3555H51.5166V15.9531H50.7959V17.084H50.0459V14.1953H50.7959ZM50.7959 17.3008V18.6484H48.001V18.9531H50.9482V19.5039H47.2686V18.1387H50.0518V17.8398H47.2568V17.3008H50.7959ZM49.7295 14.6055V15.1738H46.5654V14.6055H47.7783V14.1719H48.5225V14.6055H49.7295ZM48.1475 15.3027C48.9443 15.3027 49.46 15.6426 49.46 16.1758C49.46 16.7207 48.9443 17.0488 48.1475 17.0488C47.3506 17.0488 46.8232 16.7207 46.8232 16.1758C46.8232 15.6426 47.3506 15.3027 48.1475 15.3027ZM48.1475 15.8301C47.7783 15.8301 47.5498 15.9531 47.5557 16.1758C47.5498 16.4043 47.7783 16.5156 48.1475 16.5156C48.5166 16.5156 48.751 16.4043 48.751 16.1758C48.751 15.9531 48.5166 15.8301 48.1475 15.8301ZM54.5811 14.623C54.5811 15.25 55.2197 15.9473 56.4443 16.0996L56.1514 16.7031C55.2197 16.5684 54.5371 16.1377 54.1885 15.5605C53.8369 16.1377 53.1602 16.5684 52.2373 16.7031L51.9385 16.0996C53.1514 15.9473 53.7959 15.25 53.7959 14.623V14.3652H54.5811V14.623ZM56.6143 17.1074V17.7168H54.54V19.5391H53.8018V17.7168H51.751V17.1074H56.6143ZM61.8115 17.0664V17.6641H56.9307V17.0664H58.999V16.6797H57.54V15.2148H60.4697V14.8867H57.5283V14.3066H61.2197V15.7539H58.2842V16.1055H61.3193V16.6797H59.7432V17.0664H61.8115ZM61.249 17.9688V19.5156H60.4932V18.5547H57.4756V17.9688H61.249ZM64.8057 14.6758V15.2852H63.1299V17.6523C63.9062 17.6436 64.4658 17.6084 65.0928 17.4941L65.1689 18.0977C64.4365 18.2383 63.792 18.2676 62.8076 18.2617H62.374V14.6758H64.8057ZM66.6279 14.207V19.5508H65.8838V16.6621H64.542V16.0527H65.8838V14.207H66.6279ZM72.9209 14.207V15.3262H73.6416V15.9414H72.9209V16.8672H72.1709V14.207H72.9209ZM71.4092 14.541V16.7617H68.8486V14.541H71.4092ZM69.5869 15.1211V16.1758H70.6709V15.1211H69.5869ZM69.8975 17.3125V18.7891C70.1934 18.7715 70.4717 18.7275 70.7471 18.6367L70.8525 19.2168C70.4014 19.3809 69.9736 19.3984 69.4639 19.3984H69.1709V17.3125H69.8975ZM73.3545 17.3652V17.9043H70.6709V17.3652H71.6553V16.9785H72.3818V17.3652H73.3545ZM72.0068 18.0391C72.6162 18.0391 73.0439 18.3262 73.0439 18.7891C73.0439 19.2461 72.6162 19.5332 72.0068 19.5332C71.3916 19.5332 70.9756 19.2461 70.9814 18.7891C70.9756 18.3262 71.3916 18.0391 72.0068 18.0391ZM72.0068 18.543C71.7959 18.543 71.6377 18.625 71.6436 18.7891C71.6377 18.9531 71.7959 19.0352 72.0068 19.0352C72.2178 19.0352 72.376 18.9531 72.376 18.7891C72.376 18.625 72.2178 18.543 72.0068 18.543ZM78.7393 16.9316V17.5293H73.876V16.9316H78.7393ZM78.1885 18.8477V19.4453H74.4619V17.8867H75.2119V18.8477H78.1885ZM76.3076 14.3711C77.4736 14.3652 78.2412 14.7812 78.2471 15.4609C78.2412 16.1406 77.4736 16.5625 76.3076 16.5625C75.1299 16.5625 74.3623 16.1406 74.3623 15.4609C74.3623 14.7812 75.1299 14.3652 76.3076 14.3711ZM76.3076 14.957C75.5693 14.9629 75.1357 15.1387 75.1416 15.4609C75.1357 15.7949 75.5693 15.959 76.3076 15.959C77.0459 15.959 77.4736 15.7949 77.4736 15.4609C77.4736 15.1387 77.0459 14.9629 76.3076 14.957ZM22.1816 21.2129V25.1094H21.4316V21.2129H22.1816ZM22.3223 25.8477V26.4453H18.6074V24.7637H19.3633V25.8477H22.3223ZM19.791 22.4492C19.7852 23.0469 20.1895 23.6328 21.0684 23.873L20.7109 24.459C20.0957 24.2891 19.6709 23.9346 19.4277 23.4805C19.1875 23.9756 18.7539 24.3682 18.1211 24.5469L17.7637 23.9668C18.6426 23.709 19.0352 23.082 19.0352 22.4492V22.4082H17.9453V21.8281H19.0352V21.2363H19.7969V21.8281H20.8809V22.4082H19.791V22.4492ZM27.1973 21.5176V21.998C27.1973 22.4961 27.1973 23.041 27.0625 23.7852H27.7656V24.3887H25.6855V26.5449H24.9355V24.3887H22.9023V23.7852H26.3066C26.4414 23.0967 26.4531 22.5752 26.4531 22.1152H23.459V21.5176H27.1973ZM32.9629 23.2871V23.873H28.0879V23.2871H32.9629ZM32.3828 22.4082V22.9941H28.6973V21.3125H32.3418V21.9102H29.4414V22.4082H32.3828ZM32.3594 24.1895V25.584H29.3887V25.9121H32.5V26.4922H28.6562V25.0508H31.6211V24.752H28.6504V24.1895H32.3594ZM36.2734 21.7402V22.168C36.2676 22.6719 36.2676 23.3281 36.127 24.2129L35.3887 24.1543C35.5088 23.3809 35.5205 22.8096 35.5293 22.3379H33.5078V21.7402H36.2734ZM34.9434 23.2695V24.8164C35.4678 24.7959 36.001 24.7578 36.4902 24.6934L36.5371 25.25C35.4414 25.4375 34.2285 25.4551 33.2969 25.4492L33.2266 24.8516C33.5254 24.8486 33.8594 24.8486 34.2051 24.8398V23.2695H34.9434ZM37.498 21.207V23.3516H38.2246V23.9727H37.498V26.5391H36.7422V21.207H37.498ZM44.4531 21.207V26.5391H43.7441V23.8613H43.2285V26.2812H42.543V21.2949H43.2285V23.2637H43.7441V21.207H44.4531ZM41.9805 21.8223V22.4258H40.7441V24.6992C41.2598 24.6963 41.7168 24.6699 42.2324 24.5762L42.2852 25.1855C41.6348 25.3086 41.0664 25.3262 40.3633 25.332H39.9941V21.8223H41.9805ZM49.293 21.207V23.375H49.9902V23.9961H49.293V26.5391H48.5371V21.207H49.293ZM44.9629 25.0332C45.3525 25.0332 45.8066 25.0332 46.2812 25.0215V24.5645C45.7129 24.4531 45.3438 24.0928 45.3496 23.5977C45.3438 23 45.8828 22.5957 46.6621 22.5957C47.4238 22.5957 47.9688 23 47.9746 23.5977C47.9688 24.0928 47.5938 24.4561 47.0312 24.5645V24.9922C47.4531 24.9717 47.8779 24.9365 48.2734 24.8809L48.3203 25.4258C47.1836 25.6367 45.9648 25.6426 45.0625 25.6426L44.9629 25.0332ZM48.2324 21.7988V22.3848H45.0684V21.7988H46.2812V21.2363H47.0312V21.7988H48.2324ZM46.6621 23.1641C46.2988 23.1641 46.0527 23.3223 46.0586 23.5977C46.0527 23.8789 46.2988 24.0312 46.6621 24.0312C47.0137 24.0312 47.2539 23.8789 47.2539 23.5977C47.2539 23.3223 47.0137 23.1641 46.6621 23.1641ZM54.4434 21.1953V22.3555H55.1641V22.9531H54.4434V24.084H53.6934V21.1953H54.4434ZM54.4434 24.3008V25.6484H51.6484V25.9531H54.5957V26.5039H50.916V25.1387H53.6992V24.8398H50.9043V24.3008H54.4434ZM53.377 21.6055V22.1738H50.2129V21.6055H51.4258V21.1719H52.1699V21.6055H53.377ZM51.7949 22.3027C52.5918 22.3027 53.1074 22.6426 53.1074 23.1758C53.1074 23.7207 52.5918 24.0488 51.7949 24.0488C50.998 24.0488 50.4707 23.7207 50.4707 23.1758C50.4707 22.6426 50.998 22.3027 51.7949 22.3027ZM51.7949 22.8301C51.4258 22.8301 51.1973 22.9531 51.2031 23.1758C51.1973 23.4043 51.4258 23.5156 51.7949 23.5156C52.1641 23.5156 52.3984 23.4043 52.3984 23.1758C52.3984 22.9531 52.1641 22.8301 51.7949 22.8301ZM59.6113 21.623C59.6113 22.25 60.25 22.9473 61.4746 23.0996L61.1816 23.7031C60.25 23.5684 59.5674 23.1377 59.2188 22.5605C58.8672 23.1377 58.1904 23.5684 57.2676 23.7031L56.9688 23.0996C58.1816 22.9473 58.8262 22.25 58.8262 21.623V21.3652H59.6113V21.623ZM61.6445 24.1074V24.7168H59.5703V26.5391H58.832V24.7168H56.7812V24.1074H61.6445ZM65.2891 24.6289C65.2891 25.0596 65.4678 25.502 65.9043 25.7949C66.3438 25.4844 66.5371 25.0244 66.5371 24.6289V24.4473H67.2754V24.6289C67.2695 25.1855 67.5684 25.7012 68.2773 25.918L67.9141 26.4629C67.4043 26.29 67.0703 25.9648 66.8887 25.5547C66.71 25.9648 66.3994 26.3223 65.9219 26.5098C65.418 26.3281 65.1045 25.9824 64.9316 25.5723C64.7441 25.9707 64.416 26.293 63.9297 26.4629L63.5605 25.918C64.2637 25.6777 64.5566 25.1504 64.5625 24.6289V24.4473H65.2891V24.6289ZM67.8145 21.2129V24.2246H67.0645V21.2129H67.8145ZM64.8906 21.4824C65.7227 21.4824 66.3496 22.0098 66.3496 22.7656C66.3496 23.5098 65.7227 24.0371 64.8906 24.0371C64.0586 24.0371 63.4316 23.5098 63.4316 22.7656C63.4316 22.0098 64.0586 21.4824 64.8906 21.4824ZM64.8906 22.1094C64.4629 22.1094 64.1582 22.3555 64.1641 22.7656C64.1582 23.1699 64.4629 23.416 64.8906 23.416C65.3066 23.416 65.6113 23.1699 65.6113 22.7656C65.6113 22.3555 65.3066 22.1094 64.8906 22.1094ZM70.0059 21.582C70.7266 21.582 71.2627 22.1768 71.3711 23.1348H72.2969V21.207H73.0352V26.5508H72.2969V23.7324H71.377C71.2979 24.7578 70.75 25.3848 70.0059 25.3848C69.1973 25.3848 68.6172 24.6523 68.623 23.4805C68.6172 22.3203 69.1973 21.582 70.0059 21.582ZM70.0059 22.2559C69.6074 22.2559 69.332 22.6895 69.3379 23.4805C69.332 24.2773 69.6074 24.7051 70.0059 24.7051C70.4102 24.7051 70.6738 24.2773 70.6738 23.4805C70.6738 22.6895 70.4102 22.2559 70.0059 22.2559ZM78.6016 25.3027V25.918H73.7207V25.3027H74.8105V23.9961C74.3975 23.75 74.1484 23.3721 74.1484 22.9004C74.1484 22.0391 74.9922 21.4648 76.1523 21.4648C77.3066 21.4648 78.1562 22.0391 78.1621 22.9004C78.1592 23.3604 77.916 23.7354 77.5176 23.9844V25.3027H78.6016ZM76.1523 22.0566C75.3906 22.0566 74.8867 22.3613 74.8867 22.9004C74.8867 23.4219 75.3906 23.7441 76.1523 23.7441C76.9082 23.7441 77.418 23.4219 77.4238 22.9004C77.418 22.3613 76.9082 22.0566 76.1523 22.0566ZM75.5488 25.3027H76.7617V24.2656C76.5713 24.3037 76.3662 24.3242 76.1523 24.3242C75.9385 24.3242 75.7363 24.3066 75.5488 24.2656V25.3027ZM79.5977 26.0527C79.3223 26.0527 79.0996 25.8301 79.1055 25.5605C79.0996 25.291 79.3223 25.0742 79.5977 25.0742C79.8555 25.0742 80.084 25.291 80.084 25.5605C80.084 25.8301 79.8555 26.0527 79.5977 26.0527Z" fill="#63D698"/>
</g>
<defs>
<filter id="filter0_d_92_379" x="0.2" y="0.2" width="97.6" height="42.6" filterUnits="userSpaceOnUse" color-interpolation-filters="sRGB">
<feFlood flood-opacity="0" result="BackgroundImageFix"/>
<feColorMatrix in="SourceAlpha" type="matrix" values="0 0 0 0 0 0 0 0 0 0 0 0 0 0 0 0 0 0 127 0" result="hardAlpha"/>
<feOffset dy="1"/>
<feGaussianBlur stdDeviation="4.9"/>
<feComposite in2="hardAlpha" operator="out"/>
<feColorMatrix type="matrix" values="0 0 0 0 0 0 0 0 0 0 0 0 0 0 0 0 0 0 0.09 0"/>
<feBlend mode="normal" in2="BackgroundImageFix" result="effect1_dropShadow_92_379"/>
<feBlend mode="normal" in="SourceGraphic" in2="effect1_dropShadow_92_379" result="shape"/>
</filter>
<filter id="filter1_d_92_379" x="2.5" y="3.5" width="93" height="38" filterUnits="userSpaceOnUse" color-interpolation-filters="sRGB">
<feFlood flood-opacity="0" result="BackgroundImageFix"/>
<feColorMatrix in="SourceAlpha" type="matrix" values="0 0 0 0 0 0 0 0 0 0 0 0 0 0 0 0 0 0 127 0" result="hardAlpha"/>
<feMorphology radius="6" operator="erode" in="SourceAlpha" result="effect1_dropShadow_92_379"/>
<feOffset dy="2"/>
<feGaussianBlur stdDeviation="6.75"/>
<feComposite in2="hardAlpha" operator="out"/>
<feColorMatrix type="matrix" values="0 0 0 0 0 0 0 0 0 0 0 0 0 0 0 0 0 0 0.25 0"/>
<feBlend mode="normal" in2="BackgroundImageFix" result="effect1_dropShadow_92_379"/>
<feBlend mode="normal" in="SourceGraphic" in2="effect1_dropShadow_92_379" result="shape"/>
</filter>
</defs>
</svg>
