<svg width="9" height="9" viewBox="0 0 9 9" fill="none" xmlns="http://www.w3.org/2000/svg">
<circle cx="4.5" cy="4.5" r="4.5" fill="#9CE68A" fill-opacity="0.34"/>
<g clip-path="url(#clip0_92_414)">
<path d="M3.63469 3.46154C3.63469 3.07968 3.94515 2.76923 4.327 2.76923H4.67315C5.055 2.76923 5.36546 3.07968 5.36546 3.46154V3.50048C5.36546 3.73629 5.24539 3.95589 5.04743 4.08245L4.59094 4.3756C4.31834 4.55084 4.15392 4.85264 4.15392 5.17608V5.1923C4.15392 5.38377 4.30861 5.53846 4.50008 5.53846C4.69154 5.53846 4.84623 5.38377 4.84623 5.1923V5.17716C4.84623 5.08846 4.89166 5.00625 4.96522 4.95865L5.42171 4.6655C5.81762 4.41021 6.05777 3.97211 6.05777 3.50048V3.46154C6.05777 2.69675 5.43794 2.07692 4.67315 2.07692H4.327C3.56221 2.07692 2.94238 2.69675 2.94238 3.46154C2.94238 3.653 3.09707 3.80769 3.28854 3.80769C3.48 3.80769 3.63469 3.653 3.63469 3.46154ZM4.50008 6.92307C4.61483 6.92307 4.72489 6.87749 4.80603 6.79634C4.88718 6.7152 4.93277 6.60514 4.93277 6.49038C4.93277 6.37562 4.88718 6.26557 4.80603 6.18442C4.72489 6.10328 4.61483 6.05769 4.50008 6.05769C4.38532 6.05769 4.27526 6.10328 4.19412 6.18442C4.11297 6.26557 4.06738 6.37562 4.06738 6.49038C4.06738 6.60514 4.11297 6.7152 4.19412 6.79634C4.27526 6.87749 4.38532 6.92307 4.50008 6.92307Z" fill="#63D698"/>
</g>
<defs>
<clipPath id="clip0_92_414">
<rect width="3.46154" height="5.53846" fill="white" transform="translate(2.76929 1.73077)"/>
</clipPath>
</defs>
</svg>
